<svg width="37" height="31" viewBox="0 0 37 31" fill="none" xmlns="http://www.w3.org/2000/svg">
<path fill-rule="evenodd" clip-rule="evenodd" d="M20.2917 18.2917C22.1924 18.2917 24.0153 19.0467 25.3593 20.3907C26.7033 21.7348 27.4583 23.5576 27.4583 25.4583V29.0417C27.4583 29.5169 27.2696 29.9726 26.9336 30.3086C26.5976 30.6446 26.1418 30.8333 25.6667 30.8333C25.1915 30.8333 24.7358 30.6446 24.3998 30.3086C24.0638 29.9726 23.875 29.5169 23.875 29.0417V25.4583C23.875 24.508 23.4975 23.5965 22.8255 22.9245C22.1535 22.2525 21.242 21.875 20.2917 21.875H7.75C6.79964 21.875 5.8882 22.2525 5.2162 22.9245C4.54419 23.5965 4.16666 24.508 4.16666 25.4583V29.0417C4.16666 29.5169 3.9779 29.9726 3.6419 30.3086C3.30589 30.6446 2.85018 30.8333 2.375 30.8333C1.89982 30.8333 1.4441 30.6446 1.1081 30.3086C0.772093 29.9726 0.583328 29.5169 0.583328 29.0417V25.4583C0.583328 23.5576 1.33839 21.7348 2.6824 20.3907C4.02641 19.0467 5.84928 18.2917 7.75 18.2917H20.2917ZM31.0417 18.2917C32.4672 18.2917 33.8344 18.858 34.8424 19.866C35.8504 20.874 36.4167 22.2411 36.4167 23.6667V27.25C36.4167 27.7252 36.2279 28.1809 35.8919 28.5169C35.5559 28.8529 35.1002 29.0417 34.625 29.0417C34.1498 29.0417 33.6941 28.8529 33.3581 28.5169C33.0221 28.1809 32.8333 27.7252 32.8333 27.25V23.6667C32.8333 23.1915 32.6446 22.7358 32.3086 22.3998C31.9726 22.0638 31.5169 21.875 31.0417 21.875H28.5047C27.8835 20.4563 26.9066 19.222 25.6685 18.2917H31.0417ZM14.0208 0.375C16.1591 0.375 18.2099 1.22444 19.7219 2.73645C21.2339 4.24846 22.0833 6.29919 22.0833 8.4375C22.0833 10.5758 21.2339 12.6265 19.7219 14.1386C18.2099 15.6506 16.1591 16.5 14.0208 16.5C11.8825 16.5 9.83179 15.6506 8.31978 14.1386C6.80777 12.6265 5.95833 10.5758 5.95833 8.4375C5.95833 6.29919 6.80777 4.24846 8.31978 2.73645C9.83179 1.22444 11.8825 0.375 14.0208 0.375ZM29.25 5.75C30.6755 5.75 32.0427 6.3163 33.0507 7.3243C34.0587 8.33231 34.625 9.69946 34.625 11.125C34.625 12.5505 34.0587 13.9177 33.0507 14.9257C32.0427 15.9337 30.6755 16.5 29.25 16.5C27.8245 16.5 26.4573 15.9337 25.4493 14.9257C24.4413 13.9177 23.875 12.5505 23.875 11.125C23.875 9.69946 24.4413 8.33231 25.4493 7.3243C26.4573 6.3163 27.8245 5.75 29.25 5.75ZM14.0208 3.95833C12.8329 3.95833 11.6936 4.43025 10.8536 5.27025C10.0136 6.11026 9.54166 7.24955 9.54166 8.4375C9.54166 9.62545 10.0136 10.7647 10.8536 11.6048C11.6936 12.4448 12.8329 12.9167 14.0208 12.9167C15.2088 12.9167 16.3481 12.4448 17.1881 11.6048C18.0281 10.7647 18.5 9.62545 18.5 8.4375C18.5 7.24955 18.0281 6.11026 17.1881 5.27025C16.3481 4.43025 15.2088 3.95833 14.0208 3.95833ZM29.25 9.33334C28.7748 9.33334 28.3191 9.5221 27.9831 9.8581C27.6471 10.1941 27.4583 10.6498 27.4583 11.125C27.4583 11.6002 27.6471 12.0559 27.9831 12.3919C28.3191 12.7279 28.7748 12.9167 29.25 12.9167C29.7252 12.9167 30.1809 12.7279 30.5169 12.3919C30.8529 12.0559 31.0417 11.6002 31.0417 11.125C31.0417 10.6498 30.8529 10.1941 30.5169 9.8581C30.1809 9.5221 29.7252 9.33334 29.25 9.33334Z" fill="#CCCCCC"/>
</svg>
