<svg width="35" height="26" viewBox="0 0 35 26" fill="none" xmlns="http://www.w3.org/2000/svg">
<path d="M30.185 3.82497C28.895 1.67497 26.53 0.599976 23.95 0.599976H11.05C8.46999 0.599976 6.105 1.67497 4.815 3.82497C-0.13 11.35 -1.205 22.745 2.235 25.11C5.675 27.475 13.415 17.155 17.5 17.155C21.585 17.155 29.11 27.475 32.765 25.11C36.205 22.745 35.13 11.35 30.185 3.82497ZM13.2 11.35H11.05V13.5H8.89999V11.35H6.74999V9.19997H8.89999V7.04997H11.05V9.19997H13.2V11.35ZM24.81 12.425C24.81 13.5 23.95 14.36 22.875 14.36C21.8 14.36 20.94 13.5 20.94 12.425C20.94 11.35 21.8 10.49 22.875 10.49C23.95 10.49 24.81 11.35 24.81 12.425ZM28.895 8.12497C28.895 9.19997 28.035 10.06 26.96 10.06C25.885 10.06 25.025 9.19997 25.025 8.12497C25.025 7.04997 25.885 6.18997 26.96 6.18997C28.035 6.18997 28.895 7.04997 28.895 8.12497Z" fill="#CCCCCC"/>
</svg>
