<svg width="43" height="43" viewBox="0 0 43 43" fill="none" xmlns="http://www.w3.org/2000/svg">
<path d="M13.2807 21.5C10.862 21.58 8.88368 22.6038 7.34583 24.5714H4.34479C3.12049 24.5714 2.09028 24.2475 1.25417 23.5996C0.418056 22.9517 0 22.0039 0 20.7561C0 15.1092 0.925694 12.2857 2.77708 12.2857C2.86667 12.2857 3.19141 12.4537 3.7513 12.7896C4.3112 13.1256 5.03906 13.4655 5.9349 13.8094C6.83073 14.1534 7.7191 14.3253 8.6 14.3253C9.60035 14.3253 10.5932 14.1414 11.5786 13.7734C11.504 14.3653 11.4667 14.8932 11.4667 15.3571C11.4667 17.5807 12.0714 19.6283 13.2807 21.5ZM37.2667 36.7852C37.2667 38.7048 36.7217 40.2205 35.6318 41.3323C34.5418 42.4441 33.0936 43 31.287 43H11.713C9.90642 43 8.45816 42.4441 7.36823 41.3323C6.2783 40.2205 5.73333 38.7048 5.73333 36.7852C5.73333 35.9373 5.75946 35.1095 5.81172 34.3016C5.86398 33.4938 5.96849 32.6219 6.12526 31.6861C6.28203 30.7503 6.47986 29.8824 6.71875 29.0826C6.95764 28.2827 7.27865 27.5029 7.68177 26.743C8.0849 25.9832 8.54774 25.3353 9.07031 24.7994C9.59288 24.2635 10.2312 23.8356 10.9852 23.5156C11.7391 23.1957 12.5715 23.0357 13.4823 23.0357C13.6316 23.0357 13.9526 23.2077 14.4453 23.5516C14.938 23.8956 15.483 24.2795 16.0802 24.7034C16.6774 25.1273 17.4762 25.5113 18.4766 25.8552C19.4769 26.1991 20.4847 26.3711 21.5 26.3711C22.5153 26.3711 23.5231 26.1991 24.5234 25.8552C25.5238 25.5113 26.3226 25.1273 26.9198 24.7034C27.517 24.2795 28.062 23.8956 28.5547 23.5516C29.0474 23.2077 29.3684 23.0357 29.5177 23.0357C30.4285 23.0357 31.2608 23.1957 32.0148 23.5156C32.7688 23.8356 33.4071 24.2635 33.9297 24.7994C34.4523 25.3353 34.9151 25.9832 35.3182 26.743C35.7214 27.5029 36.0424 28.2827 36.2812 29.0826C36.5201 29.8824 36.718 30.7503 36.8747 31.6861C37.0315 32.6219 37.136 33.4938 37.1883 34.3016C37.2405 35.1095 37.2667 35.9373 37.2667 36.7852ZM14.3333 6.14286C14.3333 7.83854 13.7734 9.28627 12.6536 10.486C11.5339 11.6858 10.1826 12.2857 8.6 12.2857C7.01736 12.2857 5.66615 11.6858 4.54635 10.486C3.42656 9.28627 2.86667 7.83854 2.86667 6.14286C2.86667 4.44717 3.42656 2.99944 4.54635 1.79967C5.66615 0.599888 7.01736 0 8.6 0C10.1826 0 11.5339 0.599888 12.6536 1.79967C13.7734 2.99944 14.3333 4.44717 14.3333 6.14286ZM30.1 15.3571C30.1 17.9007 29.2602 20.0723 27.5805 21.8719C25.9008 23.6716 23.874 24.5714 21.5 24.5714C19.126 24.5714 17.0992 23.6716 15.4195 21.8719C13.7398 20.0723 12.9 17.9007 12.9 15.3571C12.9 12.8136 13.7398 10.642 15.4195 8.84235C17.0992 7.04269 19.126 6.14286 21.5 6.14286C23.874 6.14286 25.9008 7.04269 27.5805 8.84235C29.2602 10.642 30.1 12.8136 30.1 15.3571ZM43 20.7561C43 22.0039 42.5819 22.9517 41.7458 23.5996C40.9097 24.2475 39.8795 24.5714 38.6552 24.5714H35.6542C34.1163 22.6038 32.138 21.58 29.7193 21.5C30.9286 19.6283 31.5333 17.5807 31.5333 15.3571C31.5333 14.8932 31.496 14.3653 31.4214 13.7734C32.4068 14.1414 33.3997 14.3253 34.4 14.3253C35.2809 14.3253 36.1693 14.1534 37.0651 13.8094C37.9609 13.4655 38.6888 13.1256 39.2487 12.7896C39.8086 12.4537 40.1333 12.2857 40.2229 12.2857C42.0743 12.2857 43 15.1092 43 20.7561ZM40.1333 6.14286C40.1333 7.83854 39.5734 9.28627 38.4536 10.486C37.3339 11.6858 35.9826 12.2857 34.4 12.2857C32.8174 12.2857 31.4661 11.6858 30.3464 10.486C29.2266 9.28627 28.6667 7.83854 28.6667 6.14286C28.6667 4.44717 29.2266 2.99944 30.3464 1.79967C31.4661 0.599888 32.8174 0 34.4 0C35.9826 0 37.3339 0.599888 38.4536 1.79967C39.5734 2.99944 40.1333 4.44717 40.1333 6.14286Z" fill="#CCCCCC"/>
</svg>
