<svg width="37" height="37" viewBox="0 0 37 37" fill="none" xmlns="http://www.w3.org/2000/svg">
<path d="M33.2812 14.9167C33.2812 14.6226 33.2233 14.3313 33.1107 14.0596C32.9982 13.7879 32.8332 13.541 32.6253 13.333C32.4173 13.1251 32.1704 12.9601 31.8987 12.8476C31.627 12.735 31.3357 12.6771 31.0416 12.6771C30.7475 12.6771 30.4563 12.735 30.1846 12.8476C29.9129 12.9601 29.666 13.1251 29.458 13.333C29.25 13.541 29.0851 13.7879 28.9725 14.0596C28.86 14.3313 28.8021 14.6226 28.8021 14.9167H33.2812ZM8.19791 14.9167C8.19791 14.3227 7.96195 13.753 7.54195 13.333C7.12195 12.913 6.5523 12.6771 5.95832 12.6771C5.36435 12.6771 4.7947 12.913 4.3747 13.333C3.9547 13.753 3.71874 14.3227 3.71874 14.9167H8.19791ZM33.0411 20.0838C33.4612 20.5039 34.0309 20.7399 34.625 20.7399C35.219 20.7399 35.7887 20.5039 36.2088 20.0838C36.6289 19.6638 36.8648 19.094 36.8648 18.5C36.8648 17.9059 36.6289 17.3362 36.2088 16.9162L33.0411 20.0838ZM18.5 2.375L20.0838 0.791165C19.8758 0.583138 19.6289 0.418119 19.3572 0.305533C19.0854 0.192946 18.7941 0.134998 18.5 0.134998C18.2058 0.134998 17.9146 0.192946 17.6428 0.305533C17.371 0.418119 17.1241 0.583138 16.9162 0.791165L18.5 2.375ZM0.791161 16.9162C0.371103 17.3362 0.135117 17.9059 0.135117 18.5C0.135117 19.094 0.371103 19.6638 0.791161 20.0838C1.21122 20.5039 1.78094 20.7399 2.37499 20.7399C2.96905 20.7399 3.53877 20.5039 3.95883 20.0838L0.791161 16.9162ZM9.54166 36.8646H27.4583V32.3854H9.54166V36.8646ZM33.2812 31.0417V14.9167H28.8021V31.0417H33.2812ZM8.19791 31.0417V14.9167H3.71874V31.0417H8.19791ZM36.2088 16.9162L20.0838 0.791165L16.9162 3.95883L33.0411 20.0838L36.2088 16.9162ZM16.9162 0.791165L0.791161 16.9162L3.95883 20.0838L20.0838 3.95883L16.9162 0.791165ZM27.4583 36.8646C29.0026 36.8646 30.4837 36.2511 31.5757 35.1591C32.6677 34.0671 33.2812 32.586 33.2812 31.0417H28.8021C28.8021 31.398 28.6605 31.7398 28.4085 31.9918C28.1565 32.2438 27.8147 32.3854 27.4583 32.3854V36.8646ZM9.54166 32.3854C9.18527 32.3854 8.84348 32.2438 8.59148 31.9918C8.33948 31.7398 8.19791 31.398 8.19791 31.0417H3.71874C3.71874 32.586 4.33223 34.0671 5.42423 35.1591C6.51624 36.2511 7.99732 36.8646 9.54166 36.8646V32.3854Z" fill="#CCCCCC"/>
</svg>
