<svg width="35" height="27" viewBox="0 0 35 27" fill="none" xmlns="http://www.w3.org/2000/svg">
<path d="M34.7 2.46619C34.7001 2.77361 34.6243 3.0763 34.4793 3.34736C34.3342 3.61842 34.1245 3.84945 33.8687 4.01993L17.5 14.9333L1.13134 4.01993C0.797663 3.79792 0.544322 3.4744 0.408802 3.09723C0.273283 2.72006 0.262784 2.30929 0.378861 1.92569C0.494938 1.54209 0.731422 1.20605 1.05332 0.96729C1.37522 0.728534 1.76543 0.599749 2.1662 0.599991H32.8367C33.8687 0.599991 34.7029 1.43706 34.7029 2.46619H34.7ZM34.7 9.10539V23.5333C34.7 24.2936 34.398 25.0228 33.8604 25.5604C33.3228 26.098 32.5936 26.4 31.8333 26.4H3.16667C2.40638 26.4 1.67723 26.098 1.13963 25.5604C0.602026 25.0228 0.300003 24.2936 0.300003 23.5333V9.10539C0.300003 8.53206 0.93927 8.19093 1.41514 8.50913L17.5 19.2333L33.5849 8.51199C33.6926 8.43993 33.8179 8.39842 33.9473 8.39191C34.0768 8.3854 34.2056 8.41411 34.32 8.475C34.4344 8.53589 34.5302 8.62668 34.5971 8.73769C34.664 8.8487 34.6996 8.97578 34.7 9.10539Z" fill="#CCCCCC"/>
</svg>
