<svg width="33" height="39" viewBox="0 0 33 39" fill="none" xmlns="http://www.w3.org/2000/svg">
<path d="M32.625 31.0417V32.8333H0.375V31.0417L3.95833 27.4583V16.7083C3.95833 11.1542 7.59542 6.26293 12.9167 4.68626V4.16668C12.9167 3.21632 13.2942 2.30488 13.9662 1.63288C14.6382 0.960872 15.5496 0.583344 16.5 0.583344C17.4504 0.583344 18.3618 0.960872 19.0338 1.63288C19.7058 2.30488 20.0833 3.21632 20.0833 4.16668V4.68626C25.4046 6.26293 29.0417 11.1542 29.0417 16.7083V27.4583L32.625 31.0417ZM20.0833 34.625C20.0833 35.5754 19.7058 36.4868 19.0338 37.1588C18.3618 37.8308 17.4504 38.2083 16.5 38.2083C15.5496 38.2083 14.6382 37.8308 13.9662 37.1588C13.2942 36.4868 12.9167 35.5754 12.9167 34.625" fill="#CCCCCC"/>
</svg>
