<svg width="33" height="39" viewBox="0 0 33 39" fill="none" xmlns="http://www.w3.org/2000/svg">
<path d="M29.8333 19.5V8.3003C29.8334 8.15887 29.8057 8.01881 29.7515 7.88815C29.6974 7.75748 29.6181 7.63878 29.518 7.53884L23.8778 1.89868C23.6764 1.69702 23.4032 1.58359 23.1182 1.58334H2.24166C1.95655 1.58334 1.68312 1.6966 1.48152 1.8982C1.27992 2.09981 1.16666 2.37324 1.16666 2.65834V36.3417C1.16666 36.6268 1.27992 36.9002 1.48152 37.1018C1.68312 37.3034 1.95655 37.4167 2.24166 37.4167H13.7083M8.33333 15.9167H22.6667M8.33333 8.75001H15.5M8.33333 23.0833H13.7083M26.1676 28.3508L27.9593 26.5592C28.1458 26.3725 28.3673 26.2244 28.6111 26.1233C28.8548 26.0223 29.1161 25.9703 29.38 25.9703C29.6439 25.9703 29.9053 26.0223 30.149 26.1233C30.3928 26.2244 30.6143 26.3725 30.8008 26.5592C31.1773 26.9358 31.3888 27.4465 31.3888 27.9791C31.3888 28.5116 31.1773 29.0223 30.8008 29.399L29.0092 31.1906L26.1676 28.349L20.8087 33.7079C20.5408 33.9767 20.3651 34.3236 20.307 34.6987L19.8699 37.4883L22.6595 37.053C23.0346 36.9949 23.3815 36.8192 23.6503 36.5513L29.0074 31.1906" stroke="#CCCCCC" stroke-width="1.5" stroke-linecap="round" stroke-linejoin="round"/>
</svg>
