<svg width="43" height="43" viewBox="0 0 43 43" fill="none" xmlns="http://www.w3.org/2000/svg">
<path d="M32.25 21.5C31.2646 21.5 30.4583 22.3062 30.4583 23.2917V32.6442C30.4583 33.6296 29.6521 34.4358 28.6667 34.4358H10.75C9.76458 34.4358 8.95833 33.6296 8.95833 32.6442V14.3333C8.95833 13.3479 9.76458 12.5417 10.75 12.5417H19.7083C20.6937 12.5417 21.5 11.7354 21.5 10.75C21.5 9.76458 20.6937 8.95833 19.7083 8.95833H8.95833C6.9875 8.95833 5.375 10.5708 5.375 12.5417V34.0417C5.375 36.0125 6.9875 37.625 8.95833 37.625H30.4583C32.4292 37.625 34.0417 36.0125 34.0417 34.0417V23.2917C34.0417 22.3062 33.2354 21.5 32.25 21.5ZM37.6608 8.95833H34.0417V5.33917C34.0417 4.37167 33.2533 3.58333 32.2858 3.58333H32.2321C31.2467 3.58333 30.4583 4.37167 30.4583 5.33917V8.95833H26.8571C25.8896 8.95833 25.1012 9.74666 25.0833 10.7142V10.7679C25.0833 11.7533 25.8717 12.5417 26.8571 12.5417H30.4583V16.1429C30.4583 17.1104 31.2467 17.9167 32.2321 17.8987H32.2858C33.2533 17.8987 34.0417 17.1104 34.0417 16.1429V12.5417H37.6608C38.6283 12.5417 39.4167 11.7533 39.4167 10.7858V10.7142C39.4167 9.74666 38.6283 8.95833 37.6608 8.95833Z" fill="#CCCCCC"/>
<path d="M25.0833 16.125H14.3333C13.3479 16.125 12.5417 16.9312 12.5417 17.9167C12.5417 18.9021 13.3479 19.7083 14.3333 19.7083H25.0833C26.0687 19.7083 26.875 18.9021 26.875 17.9167C26.875 16.9312 26.0687 16.125 25.0833 16.125ZM25.0833 21.5H14.3333C13.3479 21.5 12.5417 22.3062 12.5417 23.2917C12.5417 24.2771 13.3479 25.0833 14.3333 25.0833H25.0833C26.0687 25.0833 26.875 24.2771 26.875 23.2917C26.875 22.3062 26.0687 21.5 25.0833 21.5ZM25.0833 26.875H14.3333C13.3479 26.875 12.5417 27.6812 12.5417 28.6667C12.5417 29.6521 13.3479 30.4583 14.3333 30.4583H25.0833C26.0687 30.4583 26.875 29.6521 26.875 28.6667C26.875 27.6812 26.0687 26.875 25.0833 26.875Z" fill="#CCCCCC"/>
</svg>
