<svg width="43" height="43" viewBox="0 0 43 43" fill="none" xmlns="http://www.w3.org/2000/svg">
<path d="M23.8181 3.92406e-06C24.4502 3.92406e-06 25.0157 0.393454 25.2285 0.982553L26.7464 5.1901C27.2904 5.32555 27.7569 5.461 28.1525 5.6029C28.5847 5.7577 29.1415 5.99205 29.8295 6.3124L33.3641 4.4419C33.6526 4.28905 33.9829 4.23388 34.3055 4.28466C34.628 4.33544 34.9253 4.48944 35.1529 4.72355L38.2618 7.9378C38.6746 8.36565 38.7907 8.9913 38.5585 9.5374L36.9009 13.4224C37.1761 13.9277 37.3954 14.3598 37.5631 14.721C37.7437 15.1145 37.9673 15.6563 38.2339 16.355L42.0974 18.0105C42.6779 18.2578 43.037 18.8383 42.9983 19.4596L42.7145 23.9209C42.6951 24.2107 42.591 24.4885 42.4152 24.7197C42.2394 24.9509 41.9996 25.1255 41.7255 25.2216L38.0662 26.5224C37.9608 27.0276 37.8512 27.4598 37.7351 27.8253C37.5478 28.3898 37.334 28.9451 37.0944 29.4894L38.9326 33.5529C39.0624 33.8384 39.0973 34.1579 39.0323 34.4647C38.9673 34.7715 38.8058 35.0495 38.5714 35.2578L35.0755 38.3796C34.8453 38.5844 34.558 38.7138 34.2521 38.7507C33.9463 38.7876 33.6364 38.7302 33.3641 38.586L29.7607 36.6768C29.197 36.9753 28.6154 37.2389 28.0192 37.4659L26.4454 38.055L25.0479 41.925C24.9444 42.2084 24.7576 42.4539 24.512 42.6292C24.2664 42.8046 23.9736 42.9016 23.6719 42.9075L19.5869 43C19.2772 43.0081 18.9727 42.9201 18.7151 42.748C18.4575 42.5759 18.2596 42.3282 18.1486 42.0389L16.5017 37.6809C15.9398 37.4888 15.3834 37.2809 14.8333 37.0574C14.3833 36.8626 13.9402 36.6525 13.5046 36.4274L9.41957 38.1732C9.15041 38.2881 8.85367 38.3222 8.56547 38.2714C8.27727 38.2206 8.01005 38.0872 7.79632 37.8873L4.77342 35.0514C4.54836 34.8412 4.39509 34.5656 4.33529 34.2635C4.27549 33.9614 4.31218 33.6481 4.44017 33.368L6.19672 29.541C5.96311 29.0877 5.74653 28.6259 5.54742 28.1564C5.31501 27.5818 5.09991 27.0003 4.90242 26.4127L1.05392 25.241C0.7411 25.1464 0.468252 24.9512 0.277752 24.6857C0.0872519 24.4202 -0.0102375 24.0992 0.000423848 23.7725L0.150924 19.6424C0.161636 19.3729 0.245818 19.1115 0.394364 18.8864C0.54291 18.6613 0.750168 18.4811 0.993724 18.3653L5.03142 16.426C5.21847 15.7401 5.38187 15.2069 5.52592 14.8178C5.72876 14.298 5.954 13.7873 6.20102 13.287L4.45092 9.589C4.31811 9.30817 4.27778 8.99246 4.33573 8.68726C4.39367 8.38206 4.54692 8.1031 4.77342 7.8905L7.79202 5.0396C8.00363 4.84002 8.2684 4.70584 8.55447 4.6532C8.84055 4.60057 9.13574 4.63172 9.40452 4.7429L13.4852 6.4285C13.9367 6.1275 14.3452 5.88455 14.715 5.6889C15.1558 5.45455 15.7449 5.20945 16.4866 4.945L17.9056 0.986853C18.0105 0.697181 18.2023 0.446949 18.4547 0.270326C18.7071 0.0937027 19.0079 -0.000701439 19.316 3.92406e-06H23.8181ZM22.7646 2.96055H20.3717L19.0709 6.60265C18.9944 6.81502 18.8707 7.00724 18.7091 7.16478C18.5474 7.32233 18.3521 7.44109 18.1378 7.5121C17.2004 7.82385 16.5232 8.0926 16.1276 8.30115C15.7083 8.5226 15.173 8.86015 14.5366 9.31165C14.3283 9.45783 14.0865 9.54905 13.8335 9.57687C13.5806 9.60468 13.3247 9.56818 13.0896 9.47075L9.15512 7.8475L7.62217 9.2966L9.21962 12.6721C9.31526 12.8729 9.36381 13.0929 9.36157 13.3154C9.35934 13.5378 9.30638 13.7568 9.20672 13.9556C8.77672 14.8178 8.48647 15.4542 8.34027 15.8455C8.11608 16.4969 7.92237 17.1584 7.75977 17.8278C7.70576 18.0373 7.60656 18.2325 7.46914 18.3996C7.33172 18.5668 7.1594 18.7018 6.96427 18.7953L3.11577 20.6421L3.03837 22.7491L6.52137 23.8069C6.98362 23.9467 7.34912 24.3014 7.50177 24.7572C7.84577 25.7892 8.12097 26.5503 8.31877 27.0276C8.58086 27.6333 8.8707 28.2267 9.18737 28.8057C9.29451 29.0049 9.35396 29.2263 9.36104 29.4523C9.36813 29.6784 9.32267 29.9031 9.22822 30.1086L7.61357 33.6303L9.14222 35.0665L12.9735 33.4282C13.1799 33.34 13.4033 33.2989 13.6276 33.3078C13.8518 33.3167 14.0713 33.3755 14.27 33.4798C15.0547 33.8926 15.6395 34.1785 16.0093 34.3355C16.3856 34.4924 17.1058 34.7547 18.1507 35.1116C18.3582 35.1825 18.5474 35.2982 18.705 35.4506C18.8626 35.6029 18.9846 35.7882 19.0623 35.9931L20.5845 40.0158L22.5754 39.9728L23.859 36.4167C23.9324 36.2138 24.0491 36.0292 24.2009 35.8759C24.3527 35.7226 24.5361 35.6041 24.7383 35.5287L26.9679 34.6945C27.5312 34.486 28.2149 34.157 29.0125 33.7055C29.2333 33.5815 29.4817 33.5149 29.7349 33.5119C29.9881 33.5089 30.238 33.5696 30.4616 33.6883L33.8522 35.4836L35.7592 33.7829L34.0908 30.1C34.0051 29.9109 33.9606 29.7058 33.9603 29.4982C33.9599 29.2906 34.0037 29.0854 34.0887 28.896C34.48 28.0209 34.7444 27.3609 34.8777 26.9395C35.0089 26.5267 35.1443 25.9311 35.2755 25.1657C35.3206 24.9058 35.4342 24.6625 35.6047 24.4611C35.7751 24.2596 35.9962 24.1073 36.2451 24.0198L39.7883 22.762L39.9431 20.311L36.4601 18.8189C36.2747 18.74 36.1072 18.6242 35.9679 18.4786C35.8286 18.333 35.7203 18.1606 35.6496 17.9718C35.4012 17.2865 35.1301 16.6096 34.8369 15.9422C34.5592 15.3612 34.258 14.7917 33.9339 14.2351C33.8216 14.0385 33.7564 13.8186 33.7433 13.5925C33.7302 13.3665 33.7697 13.1405 33.8586 12.9322L35.4174 9.27725L33.7748 7.57875L30.5756 9.27295C30.3667 9.38372 30.1348 9.44395 29.8984 9.44881C29.6621 9.45366 29.4279 9.403 29.2146 9.3009C28.5356 8.96327 27.8411 8.65764 27.1334 8.385C26.53 8.18236 25.9147 8.01722 25.2909 7.8905C25.0434 7.83802 24.8133 7.72347 24.6222 7.55761C24.4311 7.39175 24.2854 7.18003 24.1987 6.94235L22.7625 2.9584L22.7646 2.96055ZM21.552 12.1281C26.7873 12.1281 31.0335 16.3271 31.0335 21.5043C31.0335 26.6815 26.7873 30.8783 21.552 30.8783C16.3146 30.8783 12.0705 26.6815 12.0705 21.5043C12.0705 16.3271 16.3146 12.1303 21.552 12.1303V12.1281ZM21.552 15.0908C17.968 15.0908 15.0633 17.9611 15.0633 21.5043C15.0633 25.0475 17.968 27.9199 21.552 27.9199C25.1339 27.9199 28.0386 25.0475 28.0386 21.5043C28.0386 17.9611 25.1361 15.0908 21.552 15.0908Z" fill="#CCCCCC"/>
</svg>
